<?xml version="1.0" encoding="utf-8"?>
<!-- Svg Vector Icons : http://www.onlinewebfonts.com/icon -->
<!DOCTYPE svg PUBLIC "-//W3C//DTD SVG 1.1//EN" "http://www.w3.org/Graphics/SVG/1.1/DTD/svg11.dtd">
<svg version="1.1" xmlns="http://www.w3.org/2000/svg" xmlns:xlink="http://www.w3.org/1999/xlink" x="0px" y="0px" viewBox="0 0 1000 1000" enable-background="new 0 0 1000 1000" xml:space="preserve">
<metadata> Svg Vector Icons : http://www.onlinewebfonts.com/icon </metadata>
<g><path d="M924.7,581.7V157c0-4.4-1.6-8.3-4.8-11.5c-3.2-3.2-7.1-4.8-11.5-4.8H91.7c-4.4,0-8.3,1.6-11.5,4.8c-3.2,3.2-4.8,7.1-4.8,11.5v424.7c0,4.4,1.6,8.3,4.8,11.5c3.2,3.2,7.1,4.8,11.5,4.8h816.7c4.4,0,8.3-1.6,11.5-4.8C923.1,589.9,924.7,586.1,924.7,581.7z M990,157v555.3c0,22.5-8,41.7-24,57.7c-16,16-35.2,24-57.7,24H630.7c0,12.6,2.7,25.8,8.2,39.6c5.4,13.8,10.9,25.9,16.3,36.2c5.4,10.4,8.2,17.8,8.2,22.2c0,8.8-3.2,16.5-9.7,23c-6.5,6.5-14.1,9.7-23,9.7H369.3c-8.8,0-16.5-3.2-23-9.7c-6.5-6.5-9.7-14.1-9.7-23c0-4.8,2.7-12.2,8.2-22.5c5.4-10.2,10.9-22.1,16.3-35.7c5.4-13.6,8.2-26.9,8.2-39.8H91.7c-22.5,0-41.7-8-57.7-24c-16-16-24-35.2-24-57.7V157c0-22.5,8-41.7,24-57.7c16-16,35.2-24,57.7-24h816.7c22.5,0,41.7,8,57.7,24C982,115.3,990,134.5,990,157L990,157z"/></g>
</svg>